<svg width="74" height="14" viewBox="0 0 74 14" fill="none" xmlns="http://www.w3.org/2000/svg">
    <path fill-rule="evenodd" clip-rule="evenodd"
        d="M48.1425 1.9507C48.2847 1.9507 48.5352 1.98591 48.5352 1.7566C48.5352 1.57581 48.3917 1.55262 48.2385 1.55262H47.9288V1.9507H48.1425ZM48.6651 2.57638H48.4988L48.1789 2.05763H47.9279V2.57638H47.7862V1.45514H48.2724C48.3794 1.45514 48.462 1.46888 48.5458 1.51526C48.6168 1.55262 48.6642 1.64967 48.6642 1.7566C48.6642 1.98591 48.5094 2.05763 48.3316 2.05763L48.6651 2.57638ZM49.021 2.01082C49.0198 1.78103 48.9293 1.561 48.7691 1.39851C48.609 1.23602 48.3922 1.14419 48.1657 1.14294C47.6905 1.14294 47.2885 1.52943 47.2885 2.01082C47.2885 2.50423 47.6905 2.9006 48.1657 2.9006C48.6291 2.9006 49.021 2.50423 49.021 2.01082ZM47.1819 2.01082C47.1818 1.8801 47.2072 1.75065 47.2568 1.62999C47.3063 1.50932 47.379 1.39984 47.4705 1.30789C47.5621 1.21593 47.6707 1.14334 47.7901 1.09431C47.9095 1.04528 48.0374 1.0208 48.1662 1.02228C48.7133 1.02228 49.1517 1.46888 49.1517 2.01082C49.1517 2.56478 48.7133 3.02169 48.1662 3.02169C47.6084 3.02126 47.1819 2.56435 47.1819 2.01082ZM72.8548 1.9507C72.9983 1.9507 73.2471 1.98591 73.2471 1.7566C73.2471 1.57581 73.0926 1.55262 72.9619 1.55262H72.642V1.9507H72.8548ZM73.3656 2.57638H73.2107L72.8798 2.05763H72.642V2.57638H72.512V1.45514H72.9868C73.0808 1.45514 73.1646 1.46888 73.2585 1.51526C73.3427 1.55262 73.3774 1.64967 73.3774 1.7566C73.3774 1.98591 73.2242 2.05763 73.033 2.05763L73.3656 2.57638ZM73.7333 2.01082C73.7333 1.529 73.3542 1.14294 72.8679 1.14294C72.3931 1.14294 72.0123 1.52943 72.0123 2.01082C72.0123 2.50423 72.3931 2.9006 72.8679 2.9006C73.3542 2.9006 73.7333 2.50423 73.7333 2.01082ZM71.8938 2.01082C71.8938 1.46888 72.3085 1.02228 72.8679 1.02228C73.4134 1.02228 73.8522 1.46888 73.8522 2.01082C73.8522 2.56478 73.4134 3.02169 72.8679 3.02169C72.3089 3.02126 71.8938 2.56435 71.8938 2.01082ZM14.1729 11.2006C13.8311 11.2019 13.4925 11.1346 13.1765 11.0024C12.8605 10.8703 12.5734 10.6761 12.3317 10.4309C12.09 10.1857 11.8985 9.89434 11.7683 9.57369C11.6381 9.25305 11.5717 8.90942 11.5729 8.56261C11.5727 8.21614 11.6399 7.87304 11.7705 7.55293C11.9011 7.23282 12.0926 6.94198 12.3341 6.69705C12.5756 6.45212 12.8623 6.2579 13.1778 6.12551C13.4933 5.99312 13.8314 5.92515 14.1729 5.92549C14.5141 5.92532 14.8521 5.99342 15.1674 6.1259C15.4827 6.25838 15.7692 6.45263 16.0105 6.69756C16.2518 6.94248 16.4431 7.23327 16.5735 7.55329C16.704 7.87331 16.771 8.21629 16.7707 8.56261C16.772 8.90925 16.7057 9.25273 16.5756 9.57326C16.4455 9.89379 16.2542 10.185 16.0128 10.4302C15.7713 10.6754 15.4844 10.8697 15.1687 11.0019C14.8529 11.1342 14.5144 11.2017 14.1729 11.2006ZM4.41495 11.2006C2.97913 11.2006 1.82811 10.033 1.82811 8.56261C1.82811 7.1047 2.97913 5.92549 4.41495 5.92549C5.85077 5.92549 7.01491 7.1047 7.01491 8.56261C7.01598 8.90937 6.94945 9.25292 6.81916 9.57349C6.68887 9.89406 6.49739 10.1853 6.25574 10.4305C6.0141 10.6757 5.72706 10.8699 5.41114 11.0021C5.09522 11.1343 4.75666 11.2017 4.41495 11.2006ZM37.1273 11.2006C35.6915 11.2006 34.5405 10.033 34.5405 8.56261C34.5405 7.1047 35.6915 5.92549 37.1273 5.92549C38.5517 5.92549 39.7154 7.1047 39.7154 8.56261C39.7169 8.90847 39.651 9.25122 39.5216 9.57118C39.3922 9.89114 39.2018 10.182 38.9613 10.4271C38.7209 10.6722 38.4351 10.8667 38.1203 10.9994C37.8056 11.1322 37.4682 11.2005 37.1273 11.2006ZM27.2641 11.2006C26.9221 11.2028 26.5831 11.136 26.2667 11.0042C25.9503 10.8724 25.6629 10.6782 25.421 10.4328C25.1792 10.1874 24.9877 9.89574 24.8578 9.57471C24.7279 9.25367 24.662 8.90966 24.6641 8.56261C24.6631 8.2159 24.7297 7.87242 24.86 7.55192C24.9903 7.23143 25.1818 6.94025 25.4235 6.69515C25.6651 6.45005 25.9521 6.25587 26.268 6.12378C26.5839 5.99168 26.9224 5.9243 27.2641 5.92549C27.6054 5.92532 27.9435 5.99341 28.2589 6.12587C28.5743 6.25832 28.8609 6.45255 29.1023 6.69745C29.3437 6.94235 29.5352 7.23313 29.6658 7.55316C29.7965 7.87319 29.8637 8.21621 29.8636 8.56261C29.8647 8.90935 29.7982 9.25289 29.668 9.57346C29.5378 9.89403 29.3463 10.1853 29.1047 10.4305C28.8631 10.6757 28.5761 10.8699 28.2602 11.0021C27.9443 11.1343 27.6058 11.2017 27.2641 11.2006ZM16.7838 12.1883C16.0285 12.7556 15.1126 13.0599 14.1729 13.0557C11.7261 13.0557 9.74479 11.0443 9.74479 8.56261C9.74479 6.09296 11.7261 4.08195 14.1729 4.08195C15.1453 4.08195 16.0471 4.40617 16.7707 4.94854V1.25116H18.6944V12.9836H16.7838V12.1883ZM47.6681 6.94925C47.561 6.21321 46.9788 5.68458 46.0541 5.68458C45.5683 5.68458 44.5112 5.85206 44.5112 6.49019C44.5112 7.44223 46.1134 7.52597 46.5044 7.55131C49.0692 7.79179 49.8161 8.93621 49.8161 10.285C49.8161 11.2856 49.3176 12.0311 48.6063 12.5614C48.0011 13.0068 46.7549 13.1871 45.9949 13.1871C44.3085 13.1871 42.6002 12.2493 42.3742 10.1274H44.262C44.3678 11.128 45.4007 11.5012 45.983 11.5012C47.0376 11.5012 47.7866 11.0443 47.7866 10.5139C47.7866 9.67096 47.0151 9.48974 45.8988 9.36993C45.2713 9.29779 44.0703 9.07964 43.5726 8.6588C43.0158 8.21348 42.541 7.70676 42.541 6.84017C42.541 5.28607 43.7394 4.05791 46.1019 4.04459C48.0604 4.033 49.544 5.21392 49.5901 6.9355L47.6681 6.94925ZM7.02634 12.1883C6.27106 12.7561 5.35489 13.0604 4.41495 13.0557C1.95844 13.0557 8.97808e-06 11.0443 8.97808e-06 8.56261C-0.00116204 7.9739 0.112232 7.39076 0.333683 6.84663C0.555135 6.3025 0.880286 5.80811 1.29048 5.39181C1.70067 4.97551 2.18783 4.6455 2.72401 4.42073C3.26019 4.19595 3.83482 4.08082 4.41495 4.08195C5.38909 4.08195 6.29087 4.40617 7.02634 4.94854V4.09355H8.92553V12.9836H7.02634V12.1883ZM20.0829 3.47947H21.9939V1.23999H20.0829V3.47947ZM20.0829 12.9836H21.9939V4.09355H20.0829V12.9836ZM39.7154 12.1883C39.0028 12.7427 38.1015 13.0557 37.1273 13.0557C34.6823 13.0557 32.701 11.0443 32.701 8.56261C32.701 6.09296 34.6823 4.08195 37.1273 4.08195C38.1015 4.08195 39.0032 4.40617 39.7154 4.94854V4.09355H41.6375V12.9836H39.7387L39.7154 12.1883ZM29.8755 12.1883C29.1514 12.7427 28.2382 13.0557 27.2641 13.0557C24.8308 13.0557 22.8373 11.0443 22.8373 8.56261C22.8373 6.09296 24.8308 4.08195 27.2641 4.08195C28.2382 4.08195 29.14 4.40617 29.8755 4.94854V1.25116H31.7742V12.9836H29.8755V12.1883ZM64.5822 7.55173C64.6897 5.44367 64.0711 3.12991 62.4093 0.878418C60.7953 2.98605 60.227 5.38355 60.3687 7.55173H64.5822ZM60.6176 9.22436C60.5462 8.9103 60.4868 8.59358 60.4394 8.27489H64.5111C64.4639 8.59358 64.4046 8.9103 64.3334 9.22436H60.6176ZM61.5671 11.6107C61.8286 12.0521 62.1305 12.4675 62.4689 12.8513C62.802 12.4773 63.0986 12.0551 63.372 11.6107H61.5671ZM70.9324 7.56333C71.4071 6.56276 71.7406 5.44324 71.8938 4.1906C69.1288 4.43194 66.9562 5.79194 65.4954 7.56333H70.9324ZM70.5642 8.27489C70.3755 8.61027 70.1719 8.9113 69.9595 9.22436L64.4147 9.20074C64.5932 8.90057 64.7714 8.56261 64.9737 8.27489H70.5642ZM68.3802 10.8875C68.7276 10.5998 69.0528 10.2855 69.3531 9.94751L55.5844 9.93592C55.8941 10.2855 56.2373 10.6101 56.5932 10.8996L68.3802 10.8875ZM63.5734 11.6107C63.4917 12.0109 63.4443 12.4175 63.4316 12.826C64.7485 12.7663 66.1137 12.3562 67.3485 11.6107H63.5734ZM54.3745 8.27489C54.5755 8.61027 54.7782 8.9113 55.0042 9.22436H60.5236C60.3687 8.90057 60.1787 8.58709 59.976 8.27489H54.3745ZM57.602 11.6107C58.8373 12.3562 60.1906 12.7663 61.5079 12.826C61.4927 12.4182 61.449 12.0121 61.3771 11.6107H57.602ZM59.442 7.56333C57.9943 5.79151 55.8349 4.43151 53.0682 4.1906C53.2092 5.3569 53.5256 6.49437 54.0064 7.56333H59.442Z"
        fill="white" />
</svg>