<svg width="65" height="20" viewBox="0 0 65 20" fill="none" xmlns="http://www.w3.org/2000/svg">
<g clip-path="url(#clip0_223_7850)">
<path fill-rule="evenodd" clip-rule="evenodd" d="M39.8394 15.4686C36.1214 18.2178 30.7135 19.6823 26.0491 19.6823C19.5145 19.6823 13.6559 17.2713 9.19437 13.2604C8.85638 12.9451 9.14933 12.5168 9.5774 12.7647C14.377 15.5588 20.3032 17.2262 26.4322 17.2262C30.5557 17.2262 35.1074 16.37 39.2985 14.5898C39.9293 14.342 40.4477 15.018 39.8393 15.4686H39.8394Z" fill="white"/>
<path fill-rule="evenodd" clip-rule="evenodd" d="M41.3932 13.688C40.9202 13.0796 38.2386 13.395 37.0444 13.5528C36.6838 13.5978 36.6162 13.2824 36.9542 13.057C39.0949 11.5473 42.5875 11.9979 42.9931 12.4937C43.3987 12.9894 42.8804 16.5043 40.8746 18.172C40.5593 18.4199 40.2662 18.2847 40.4016 17.9467C40.8524 16.82 41.8664 14.3187 41.3932 13.688Z" fill="white"/>
<path fill-rule="evenodd" clip-rule="evenodd" d="M37.1118 2.4669V1.00188C37.1093 0.953856 37.1168 0.905834 37.1341 0.860931C37.1513 0.816028 37.1777 0.77525 37.2118 0.741246C37.2458 0.707241 37.2865 0.680772 37.3314 0.663558C37.3763 0.646344 37.4244 0.638771 37.4724 0.64133H44.007C44.1054 0.639259 44.2006 0.675874 44.2723 0.743299C44.3439 0.810724 44.3862 0.903573 44.3901 1.00188V2.2412C44.3901 2.444 44.2099 2.71426 43.8944 3.16509L40.5144 7.9872C41.7763 7.96465 43.1059 8.14489 44.2324 8.77562C44.4803 8.91082 44.5478 9.13617 44.5704 9.33896V10.8937C44.5704 11.1191 44.3451 11.3668 44.0974 11.2317C42.0919 10.1726 39.4105 10.06 37.2023 11.2543C36.9769 11.3669 36.7292 11.1416 36.7292 10.9163V9.42925C36.7292 9.2039 36.7292 8.79852 36.9771 8.43783L40.8978 2.8271H37.4949C37.3966 2.82918 37.3014 2.79261 37.2298 2.72526C37.1582 2.6579 37.1158 2.56514 37.1118 2.4669ZM13.2944 11.5474H11.3115C11.2226 11.5384 11.1392 11.5005 11.074 11.4394C11.0089 11.3783 10.9656 11.2975 10.9509 11.2094V1.02443C10.9548 0.926141 10.9971 0.833302 11.0688 0.765879C11.1404 0.698456 11.2356 0.661833 11.334 0.663886H13.1817C13.2731 0.665268 13.3606 0.700667 13.4273 0.763168C13.494 0.825669 13.535 0.910781 13.5422 1.00188V2.33136H13.5873C14.0603 1.04699 14.9843 0.438604 16.2011 0.438604C17.4404 0.438604 18.2291 1.04699 18.7699 2.33136C19.243 1.04699 20.3472 0.438604 21.5191 0.438604C22.3528 0.438604 23.2542 0.776596 23.8175 1.56529C24.4483 2.42151 24.3133 3.66084 24.3133 4.76497V11.2094C24.3094 11.3077 24.2671 11.4006 24.1954 11.468C24.1238 11.5354 24.0286 11.572 23.9302 11.57H21.9696C21.7668 11.5474 21.6091 11.3897 21.6091 11.2094V5.80143C21.6091 5.37328 21.6541 4.29171 21.564 3.88612C21.4063 3.21014 20.9782 3.00734 20.3923 3.00734C20.1336 3.01471 19.8827 3.09756 19.6705 3.24569C19.4583 3.39383 19.2941 3.60078 19.198 3.84108C18.9952 4.35931 19.0178 5.2156 19.0178 5.80143V11.2094C19.0139 11.3077 18.9716 11.4006 18.8999 11.468C18.8283 11.5354 18.7331 11.572 18.6347 11.57H16.6518C16.449 11.5474 16.2913 11.3897 16.2913 11.2094V5.80143C16.2913 4.67474 16.4715 2.98479 15.0745 2.98479C13.6549 2.98479 13.7 4.60715 13.7 5.80143V11.2094C13.6858 11.3058 13.6366 11.3936 13.5618 11.4559C13.4869 11.5183 13.3917 11.5509 13.2944 11.5474V11.5474ZM50.0233 0.438604C52.9752 0.438604 54.575 2.9623 54.575 6.18453C54.575 9.29413 52.8175 11.7727 50.0233 11.7727C47.1391 11.7727 45.5618 9.24901 45.5618 6.09438C45.5392 2.91719 47.1391 0.438329 50.0233 0.438329V0.438604ZM50.0233 2.53415C48.5587 2.53415 48.4686 4.53962 48.4686 5.77894C48.4686 7.01827 48.446 9.67716 50.0008 9.67716C51.5331 9.67716 51.6232 7.5365 51.6232 6.22958C51.6232 5.37328 51.5782 4.33682 51.3302 3.52557C51.1049 2.80448 50.6543 2.53415 50.0233 2.53415ZM58.3831 11.5474H56.4002C56.1974 11.5248 56.0396 11.3671 56.0396 11.1868V0.979185C56.0521 0.886138 56.0976 0.800702 56.168 0.7386C56.2384 0.676497 56.3289 0.641906 56.4227 0.641193H58.2705C58.3542 0.644148 58.4348 0.67435 58.4999 0.727218C58.5649 0.780086 58.611 0.852735 58.631 0.934142V2.4889H58.6761C59.2394 1.09183 60.0055 0.438398 61.3801 0.438398C62.2588 0.438398 63.1376 0.753766 63.701 1.63268C64.2192 2.44386 64.2192 3.81838 64.2192 4.80987V11.2318C64.2056 11.3224 64.1589 11.4048 64.0882 11.463C64.0174 11.5212 63.9276 11.5512 63.8361 11.5472H61.853C61.6728 11.5246 61.515 11.3895 61.4925 11.2318V5.68879C61.4925 4.5621 61.6277 2.93961 60.2532 2.93961C59.7801 2.93961 59.3293 3.25497 59.104 3.75079C58.8336 4.38152 58.7886 4.99011 58.7886 5.68865V11.187C58.776 11.286 58.728 11.3771 58.6534 11.4433C58.5789 11.5096 58.4828 11.5467 58.383 11.5476L58.3831 11.5474ZM31.9068 6.68028C31.9068 7.44641 31.9294 8.09984 31.5463 8.79872C31.2309 9.36207 30.7351 9.70006 30.1718 9.70006C29.4056 9.70006 28.955 9.11423 28.955 8.25794C28.955 6.56798 30.4647 6.25247 31.9068 6.25247V6.68028ZM33.9123 11.5249C33.8481 11.5809 33.7679 11.6154 33.683 11.6235C33.5982 11.6316 33.5129 11.6128 33.4392 11.5699C32.7858 11.0291 32.6508 10.7587 32.2901 10.2404C31.2085 11.3442 30.4198 11.6826 29.0228 11.6826C27.3553 11.6826 26.0484 10.646 26.0484 8.59552C26.0484 6.97316 26.9272 5.89158 28.1668 5.35073C29.2484 4.87768 30.7583 4.78739 31.9073 4.65219V4.40435C31.9073 3.9313 31.9524 3.36782 31.6595 2.96223C31.4116 2.60168 30.9609 2.444 30.5557 2.444C29.7895 2.444 29.1136 2.82703 28.9558 3.63828C28.9108 3.81852 28.7981 3.99883 28.6178 3.99883L26.7025 3.79603C26.5448 3.75099 26.3645 3.63835 26.4096 3.39044C26.8602 1.04699 28.9558 0.34845 30.8486 0.34845C31.8175 0.34845 33.0793 0.596288 33.8455 1.33987C34.8144 2.2412 34.7242 3.45832 34.7242 4.7649V7.85194C34.7242 8.77583 35.1073 9.18142 35.4678 9.69965C35.603 9.87989 35.6255 10.1052 35.4678 10.2179C35.0397 10.5559 34.3186 11.1868 33.913 11.5248L33.9123 11.5249ZM5.88099 6.68028C5.88099 7.44641 5.90354 8.09984 5.52044 8.79872C5.20507 9.36207 4.70926 9.70006 4.14592 9.70006C3.37978 9.70006 2.92915 9.11423 2.92915 8.25794C2.92915 6.56798 4.43887 6.25247 5.88099 6.25247V6.68028ZM7.8639 11.5249C7.79967 11.5809 7.71948 11.6154 7.63462 11.6235C7.54975 11.6316 7.46449 11.6128 7.39084 11.5699C6.73742 11.0291 6.60243 10.7587 6.24167 10.2404C5.1601 11.3442 4.37141 11.6826 2.9744 11.6826C1.30692 11.6826 0 10.646 0 8.59552C0 6.97316 0.878778 5.89158 2.11845 5.35073C3.20002 4.87768 4.70995 4.78739 5.85891 4.65219V4.40435C5.85891 3.9313 5.90395 3.36782 5.61107 2.96223C5.36324 2.60168 4.91254 2.444 4.50729 2.444C3.74115 2.444 3.06517 2.82703 2.90741 3.63828C2.86237 3.81852 2.74973 3.99883 2.56942 3.99883L0.654113 3.79603C0.49643 3.75099 0.316122 3.63835 0.361164 3.39044C0.811797 1.04699 2.90741 0.34845 4.80017 0.34845C5.7691 0.34845 7.03091 0.596288 7.79705 1.33987C8.76598 2.2412 8.67583 3.45832 8.67583 4.7649V7.85194C8.67583 8.77583 9.05886 9.18142 9.41941 9.69965C9.55461 9.87989 9.5771 10.1052 9.41941 10.2179C8.99127 10.5559 8.27024 11.1868 7.86465 11.5248L7.8639 11.5249Z" fill="white"/>
</g>
<defs>
<clipPath id="clip0_223_7850">
<rect width="64.2193" height="19.3334" fill="white" transform="translate(0 0.351624)"/>
</clipPath>
</defs>
</svg>
