<svg width="72" height="18" viewBox="0 0 72 18" fill="none" xmlns="http://www.w3.org/2000/svg">
<g clip-path="url(#clip0_223_7865)">
<path d="M21.9531 7.25468C22.7674 7.25468 23.4275 6.58863 23.4275 5.76715C23.4275 4.94552 22.7674 4.27962 21.9531 4.27962C21.1388 4.27962 20.4787 4.94552 20.4787 5.76715C20.4787 6.58863 21.1388 7.25468 21.9531 7.25468ZM70.6126 12.3371C70.3883 12.178 70.2151 12.1516 70.0714 12.4605C67.5951 17.8702 63.422 15.1707 63.8366 15.4083C64.7622 14.9812 67.1967 13.0119 66.8287 10.2928C66.6053 8.63106 65.1912 7.89395 63.6902 8.15788C61.0702 8.61859 60.1064 11.4689 60.597 13.9924C60.6829 14.4257 60.8363 14.7832 60.9896 15.1333C58.0289 17.5617 56.8531 12.9594 56.7197 12.4094C56.7144 12.38 59.0058 10.4536 59.6431 5.86316C60.3111 1.05212 58.7894 0.176115 57.2334 0.203446C54.3541 0.254044 53.576 6.32176 54.6213 11.3788C54.5338 11.4018 54.1263 11.6294 53.4717 11.6549C53.0006 10.1598 50.9877 8.84929 50.4609 9.35429C49.1424 10.6176 50.7807 13.0873 51.9334 13.281C51.2409 17.5827 46.9104 16.5174 47.7165 11.128C49.1267 8.48669 50.1992 4.55924 50.0079 2.18827C49.9401 1.34884 49.3247 0.22419 47.9332 0.279974C45.2566 0.386777 44.9656 6.45618 45.2794 10.7639C45.2638 10.6578 45.1148 11.2873 44.018 11.6002C43.7586 10.1477 41.4398 8.68979 40.894 9.39073C39.8722 10.7026 41.643 13.0418 42.4818 13.2049C41.7893 17.5065 37.4589 16.4411 38.265 11.0518C39.6752 8.41059 40.7476 4.48313 40.5563 2.11216C40.4885 1.2726 39.8733 0.147942 38.4816 0.203586C35.805 0.310529 35.514 6.37993 35.8278 10.6876C35.8121 10.5799 35.6596 11.2301 34.518 11.5379C34.4798 9.6534 32.1526 8.7893 31.5935 9.39059C30.5972 10.4624 31.8217 12.6615 32.9546 13.2049C32.2621 17.5065 27.9317 16.4411 28.7378 11.0518C30.1481 8.41059 31.2206 4.48313 31.0291 2.11216C30.9614 1.2726 30.3461 0.147942 28.9544 0.203586C26.2779 0.310529 26.0625 6.68506 26.3763 10.9926C25.4947 14.8024 22.5383 19.56 22.9224 10.0294C22.9603 9.36088 23.0017 9.10705 22.6713 8.85672C22.4236 8.66218 21.8605 8.7558 21.5527 8.76351C21.1786 8.77865 21.0849 8.9994 21.0022 9.33313C20.8096 10.1948 20.775 11.0302 20.7474 12.17C20.7294 12.7032 20.687 12.952 20.4834 13.679C20.2801 14.4058 19.1202 15.7344 18.4851 15.5123C17.6041 15.2067 17.8931 12.6981 18.0582 10.9746C18.1958 9.61247 17.7553 9.00081 16.6266 8.77837C15.9659 8.63947 15.5644 8.66077 14.8762 8.44198C14.2255 8.2351 14.0783 6.99356 12.6903 7.40731C11.9312 7.63381 12.4192 9.25618 12.2368 10.4586C11.3398 16.3736 9.47334 16.536 8.60746 13.6627C12.5072 4.02929 9.73556 0.231478 8.11316 0.231478C6.42337 0.231478 4.49177 1.40547 5.30971 8.91699C4.912 8.79995 4.78971 8.73688 4.35434 8.73688C1.89205 8.73688 0.214478 10.7446 0.214478 13.2212C0.214478 15.6978 1.89218 17.7057 4.35448 17.7057C5.80804 17.7057 6.82858 17.0389 7.6015 16.0075C8.1058 16.7359 8.71988 17.7169 9.84284 17.6727C13.1901 17.5413 14.1635 10.616 14.2784 10.2297C14.6362 10.2854 14.9748 10.3906 15.3052 10.4463C15.8558 10.5297 15.8958 10.7495 15.8833 11.308C15.7374 16.018 16.5991 17.6671 18.5538 17.6671C19.6428 17.6671 20.6135 16.5879 21.2822 15.8161C21.7816 16.8559 22.5775 17.6353 23.6451 17.667C26.2322 17.7319 27.2227 13.5729 27.1324 14.1202C27.0615 14.5496 27.9717 17.6436 30.6351 17.6548C33.9342 17.6688 34.5475 14.0095 34.6206 13.3965C34.6298 13.2746 34.6338 13.2872 34.6206 13.3965L34.6181 13.4337C35.6655 13.2372 36.2059 12.6708 36.2059 12.6708C36.2059 12.6708 37.0469 17.7117 40.1622 17.6549C43.3972 17.5958 44.0073 14.288 44.0873 13.6429C44.0979 13.4899 44.1042 13.5078 44.0873 13.6429C44.0869 13.6493 44.0865 13.6556 44.0861 13.6619C45.3302 13.2054 45.6575 12.7472 45.6575 12.7472C45.6575 12.7472 46.3259 17.6879 49.6138 17.731C52.5437 17.7697 53.6295 14.7435 53.6359 13.4769C54.1301 13.4822 55.0442 13.1811 55.0228 13.164C55.0228 13.164 56.096 17.4838 59.093 17.7057C60.5002 17.8098 61.5557 16.907 62.1575 16.4952C63.5716 17.6503 68.2803 19.1256 71.2536 14.0413C71.6733 13.3116 70.771 12.4496 70.6126 12.3371ZM4.23566 16.0285C2.79906 16.0285 1.87787 14.6887 1.87787 13.244C1.87787 11.7995 2.72346 10.4597 4.16007 10.4597C4.80653 10.4597 5.16616 10.5315 5.66963 10.9732C5.76093 11.336 6.01968 12.1731 6.14558 12.5532C6.31428 13.0618 6.51494 13.4948 6.71727 13.966C6.42823 15.1746 5.48064 16.0285 4.23566 16.0285ZM7.73643 11.0156C7.67668 10.9196 7.68919 10.9786 7.62234 10.8879C7.35901 10.1654 6.85151 8.55271 6.79273 6.72094C6.72631 4.6488 7.06871 2.21995 8.07814 2.21995C8.76212 2.21995 9.48904 7.14241 7.73629 11.0156H7.73643ZM27.9641 8.85658C27.8021 7.62695 27.7936 2.14524 29.0983 2.29619C29.8187 2.59053 28.6415 7.76318 27.9641 8.85658ZM37.4913 8.85658C37.3293 7.62695 37.3208 2.14524 38.6255 2.29619C39.3459 2.59053 38.1687 7.76318 37.4913 8.85658ZM46.9429 8.93297C46.7807 7.70319 46.7724 2.22149 48.077 2.37244C48.7974 2.66678 47.6202 7.83957 46.9429 8.93297ZM57.3774 1.97536C58.5703 1.85062 58.5211 7.1047 56.1267 10.4218C55.8179 9.22282 55.3445 2.38702 57.3774 1.97522V1.97536ZM62.3912 13.281C62.0081 11.329 62.9981 10.047 64.0186 9.90639C64.3753 9.84892 64.8923 10.082 64.9954 10.5178C65.1649 11.339 64.9708 12.5571 62.6866 14.1027C62.69 14.1158 62.4767 13.7158 62.3913 13.281H62.3912Z" fill="white"/>
</g>
<defs>
<clipPath id="clip0_223_7865">
<rect width="71.1764" height="17.6603" fill="white" transform="translate(0.200806 0.202332)"/>
</clipPath>
</defs>
</svg>
