<svg width="104" height="22" viewBox="0 0 104 22" fill="none" xmlns="http://www.w3.org/2000/svg">
    <path
        d="M20.9278 1.41006C18.4436 -0.135258 15.183 0.231755 12.2718 2.0475C9.36058 0.231755 6.10001 -0.135258 3.61577 1.41006C-0.304672 3.84393 -0.789875 10.1218 2.54832 15.4338C5.01315 19.3551 8.85596 21.6344 12.2718 21.5958C15.6876 21.6344 19.5304 19.3357 21.9953 15.4338C25.3141 10.1218 24.8483 3.84393 20.9278 1.41006ZM4.35328 14.3135C3.67399 13.2317 3.14997 12.0341 2.82004 10.7979C2.52891 9.71614 2.41247 8.6151 2.4901 7.49475C2.64536 5.52447 3.4411 3.99847 4.74144 3.18717C6.04179 2.37588 7.76911 2.31793 9.61288 3.05196C9.88459 3.16786 10.1563 3.28376 10.428 3.43829C9.39939 4.36548 8.50662 5.42788 7.78852 6.60619C5.77007 9.83204 5.14901 13.4249 5.8477 16.2837C5.28487 15.6656 4.79966 15.0089 4.35328 14.3135ZM21.7236 10.7979C21.3936 12.0341 20.8696 13.2124 20.1903 14.2941C19.7439 14.9895 19.2393 15.6463 18.6765 16.2644C19.3169 13.6953 18.8706 10.5661 17.3373 7.61064C17.2791 7.51406 17.2015 7.4368 17.085 7.41748C16.988 7.39816 16.8715 7.39816 16.7745 7.45611L11.9419 10.4695C11.8448 10.5274 11.7866 10.6047 11.7672 10.7206C11.7478 10.8365 11.7672 10.9331 11.8254 11.0103L12.5241 12.1307C12.5823 12.2273 12.66 12.2852 12.7764 12.3045C12.8734 12.3239 12.9899 12.3045 13.0675 12.2466L16.1922 10.2956C16.2893 10.6047 16.3863 10.8944 16.4639 11.2035C16.7551 12.2852 16.8715 13.3863 16.7939 14.5066C16.6386 16.4769 15.8429 18.0029 14.5425 18.8142C13.8633 19.2198 13.0869 19.4516 12.3106 19.4516C12.2912 19.4516 12.2718 19.4516 12.2524 19.4516H12.2136C11.4178 19.4323 10.6415 19.2198 9.98164 18.8142C8.68129 18.0029 7.86615 16.4769 7.73029 14.5066C7.65266 13.3863 7.76911 12.2852 8.06023 11.2035C8.73951 8.71168 10.1369 6.49029 12.0971 4.79044C12.9317 4.05641 13.9021 3.4576 14.9307 3.05196C16.7745 2.31793 18.5018 2.37588 19.8021 3.18717C21.1025 3.99847 21.9176 5.52447 22.0535 7.49475C22.1311 8.6151 22.0147 9.71614 21.7236 10.7979ZM46.6436 8.46057C44.1011 8.46057 42.0633 10.4308 42.0633 12.942C42.0633 15.4338 44.1205 17.3655 46.6436 17.3655C49.2055 17.3655 51.2433 15.4338 51.2433 12.942C51.2433 10.4308 49.2055 8.46057 46.6436 8.46057ZM46.6436 15.0282C45.4791 15.0282 44.5863 14.0817 44.5863 12.9227C44.5863 11.7637 45.4791 10.7979 46.6436 10.7979C47.8275 10.7979 48.7203 11.7637 48.7203 12.9227C48.7203 14.0817 47.8275 15.0282 46.6436 15.0282ZM56.9687 5.02224H52.2914C52.1943 5.02224 52.0973 5.06087 52.0196 5.13814C51.942 5.2154 51.9032 5.31199 51.9032 5.40857V16.7473C51.9032 16.8439 51.942 16.9598 52.0002 17.0371C52.0585 17.1143 52.1749 17.153 52.2719 17.153H56.9493C60.6951 17.153 63.2764 14.6805 63.2764 11.0876C63.3152 7.4368 60.7145 5.02224 56.9687 5.02224ZM57.0852 14.7384H54.5233V7.39816H57.0852C59.1618 7.39816 60.5786 8.94348 60.5786 11.049C60.5786 13.1352 59.1618 14.7384 57.0852 14.7384ZM72.6117 8.69237H70.8649C70.6709 8.71168 70.5156 8.86621 70.4962 9.0787V9.60024C70.0886 8.94348 69.1958 8.46057 68.0702 8.46057C65.877 8.46057 63.8198 10.1797 63.8198 12.9034C63.8198 15.627 65.8576 17.3655 68.0508 17.3655C69.1764 17.3655 70.108 16.8825 70.4962 16.2258V16.7666C70.4962 16.9598 70.6514 17.1337 70.8649 17.1337H72.6117C72.7087 17.1337 72.8057 17.095 72.864 17.0371C72.9416 16.9598 72.9804 16.8825 72.961 16.786V9.0787C72.961 8.98211 72.9222 8.88553 72.864 8.80826C72.8057 8.75032 72.7087 8.69237 72.6117 8.69237ZM68.5165 15.0475C67.3521 15.0475 66.4787 14.1589 66.4787 12.9227C66.4787 11.6864 67.3521 10.7979 68.5165 10.7979C69.681 10.7979 70.5544 11.6864 70.5544 12.9227C70.5544 14.1589 69.681 15.0475 68.5165 15.0475ZM82.4516 5.02224H80.7048C80.6078 5.02224 80.5108 5.06087 80.4331 5.11882C80.3555 5.19609 80.3167 5.27335 80.3167 5.38925V9.56161C79.9091 8.94348 78.9969 8.46057 77.8519 8.46057C75.6781 8.46057 73.6597 10.1797 73.6597 12.9034C73.6597 15.627 75.6976 17.3655 77.8907 17.3655C79.0163 17.3655 79.8703 16.8825 80.3361 16.2258V16.7666C80.3361 16.9598 80.4914 17.1337 80.7048 17.1337H82.4516C82.5486 17.1337 82.6457 17.095 82.7039 17.0371C82.7815 16.9598 82.8203 16.8825 82.8009 16.786V5.38925C82.8009 5.29267 82.7621 5.19609 82.7039 5.11882C82.6457 5.04155 82.5486 5.02224 82.4516 5.02224ZM78.3759 15.0668C77.2114 15.0668 76.3574 14.1589 76.3574 12.9227C76.3574 11.6864 77.2308 10.7785 78.3759 10.7785C79.521 10.7785 80.3943 11.6864 80.3943 12.9227C80.3943 14.1589 79.5404 15.0668 78.3759 15.0668ZM92.3109 5.02224H90.5642C90.4671 5.02224 90.3701 5.06087 90.2925 5.11882C90.2148 5.19609 90.176 5.27335 90.176 5.38925V9.56161C89.7684 8.94348 88.8563 8.46057 87.7112 8.46057C85.5375 8.46057 83.519 10.1797 83.519 12.9034C83.519 15.627 85.5569 17.3655 87.75 17.3655C88.8757 17.3655 89.7296 16.8825 90.1954 16.2258V16.7666C90.1954 16.9598 90.3507 17.1337 90.5642 17.1337H92.3109C92.408 17.1337 92.505 17.095 92.5632 17.0371C92.6408 16.9598 92.6603 16.8825 92.6603 16.786V5.38925C92.6603 5.29267 92.6214 5.19609 92.5632 5.11882C92.505 5.06087 92.408 5.02224 92.3109 5.02224ZM88.2352 15.0668C87.0707 15.0668 86.2168 14.1589 86.2168 12.9227C86.2168 11.6864 87.0901 10.7785 88.2352 10.7785C89.3803 10.7785 90.2536 11.6864 90.2536 12.9227C90.2536 14.1589 89.3803 15.0668 88.2352 15.0668ZM101.918 9.29118L99.2978 18.2347C98.7932 19.8186 97.6676 20.7845 95.9014 20.7845C95.1057 20.7845 94.3682 20.6299 93.8053 20.3016C93.4754 20.1084 93.2037 19.9345 93.2037 19.6641C93.2037 19.4903 93.2619 19.413 93.3589 19.2392L93.883 18.4665C94.0382 18.254 94.1353 18.1768 94.2905 18.1768C94.407 18.1768 94.5428 18.2154 94.6399 18.2926C94.9698 18.5051 95.2609 18.679 95.7267 18.679C96.2702 18.679 96.6777 18.5051 96.9106 17.8677L97.1435 17.1337H96.0761C95.8238 17.1337 95.6685 16.9791 95.6103 16.7666L93.2619 9.29118C93.1843 9.00143 93.2619 8.71168 93.6889 8.71168H95.5327C95.7656 8.71168 95.9208 8.78895 96.0179 9.11733L97.7452 15.1441L99.3561 9.11733C99.4143 8.90485 99.5501 8.71168 99.8219 8.71168H101.569C101.937 8.69237 102.054 8.94348 101.918 9.29118ZM41.384 11.9568V16.728C41.384 16.8246 41.3452 16.9405 41.2675 17.0178C41.1899 17.095 41.0929 17.1337 40.9764 17.1337H39.5208C39.4238 17.1337 39.3073 17.095 39.2297 17.0178C39.152 16.9405 39.1132 16.8439 39.1132 16.728V15.4724C38.201 16.6314 36.5902 17.3655 34.7852 17.3655C31.3888 17.3655 28.7299 14.8157 28.7299 11.2035C28.7299 7.4368 31.6023 4.84839 35.2122 4.84839C37.8905 4.84839 40.0254 5.98806 40.9764 8.28672C40.9958 8.34467 41.0152 8.42194 41.0152 8.47989C41.0152 8.59578 40.9376 8.67305 40.7047 8.75032L39.0162 9.40707C38.9192 9.44571 38.8027 9.44571 38.7057 9.40707C38.6086 9.34912 38.5504 9.27186 38.5116 9.17528C37.9099 8.03561 36.8231 7.24363 35.154 7.24363C32.9997 7.24363 31.447 8.92416 31.447 11.0876C31.447 13.1931 32.7668 14.9316 35.2122 14.9316C36.4931 14.9316 37.5218 14.3328 38.007 13.6567H36.4737C36.3767 13.6567 36.2602 13.6181 36.1826 13.5408C36.105 13.4635 36.0662 13.367 36.0662 13.2511V11.9568C36.0662 11.8603 36.105 11.7444 36.1826 11.6671C36.2602 11.5898 36.3573 11.5512 36.4737 11.5512H40.957C41.054 11.5512 41.1705 11.5898 41.2287 11.6478C41.3452 11.7444 41.384 11.841 41.384 11.9568ZM101.976 6.93457V6.81867V6.79935H101.996H102.733H102.752V6.81867V6.93457V6.95388H102.733H102.461V7.68791C102.461 7.70723 102.442 7.72654 102.423 7.72654H102.287H102.267V7.70723V6.9732H101.996H101.976C101.976 6.95388 101.976 6.93457 101.976 6.93457ZM103.276 6.81867L103.471 7.28226L103.665 6.81867C103.665 6.81867 103.665 6.79935 103.684 6.79935H103.703H103.936H103.956V6.81867V7.68791V7.70723H103.936H103.82H103.801V7.68791V7.03115L103.587 7.51406C103.587 7.51406 103.587 7.53338 103.568 7.53338H103.548H103.432H103.412L103.393 7.51406L103.179 7.03115V7.68791V7.70723H103.16H103.024H103.005V7.68791V6.81867V6.79935H103.024H103.257H103.276C103.257 6.79935 103.257 6.79935 103.276 6.81867Z"
        fill="white" />
</svg>