<svg width="69" height="23" viewBox="0 0 69 23" fill="none" xmlns="http://www.w3.org/2000/svg">
<g clip-path="url(#clip0_223_7856)">
<path d="M8.53303 0.000976562H9.14444C11.2671 0.0462881 13.3551 0.884551 14.8547 2.3685C14.301 2.92357 13.7357 3.45598 13.1936 4.01105C12.3514 3.26341 11.3363 2.68568 10.2288 2.48178C8.59071 2.14195 6.82571 2.4478 5.45293 3.36536C3.95326 4.32823 2.9381 5.95944 2.71891 7.70394C2.47666 9.42577 2.9727 11.2382 4.11476 12.5749C5.21068 13.8776 6.88339 14.6932 8.61378 14.7499C10.2288 14.8405 11.9131 14.3534 13.0897 13.2433C14.0126 12.4616 14.4394 11.2722 14.5779 10.1168C12.6629 10.1168 10.7479 10.1281 8.83297 10.1168V7.78323H16.8966C17.3119 10.2867 16.712 13.1073 14.774 14.8971C13.482 16.1659 11.6939 16.9135 9.8712 17.0608C8.1062 17.2307 6.28352 16.9022 4.71463 16.0639C2.83427 15.0784 1.3346 13.4132 0.596297 11.4535C-0.09586 9.65233 -0.107396 7.61331 0.538617 5.80085C1.12695 4.14698 2.25747 2.68568 3.711 1.66618C5.10685 0.657994 6.80264 0.102927 8.53303 0.000976562Z" fill="white"/>
<path d="M54.7919 0.589783H57.2606V16.766C56.4415 16.766 55.6109 16.7773 54.7919 16.7547C54.8034 11.3739 54.7919 5.98185 54.7919 0.589783Z" fill="white"/>
<path d="M22.3874 6.19769C23.9102 5.91449 25.5598 6.23167 26.8172 7.12657C27.9593 7.91952 28.7553 9.16559 28.9975 10.5249C29.309 12.0995 28.9168 13.8213 27.8785 15.0674C26.7595 16.4607 24.9253 17.2084 23.1373 17.0951C21.4991 17.0045 19.9072 16.2002 18.9382 14.8862C17.8423 13.4362 17.5769 11.4425 18.1768 9.74331C18.7767 7.91952 20.4724 6.52619 22.3874 6.19769ZM22.7335 8.34998C22.1106 8.50857 21.5338 8.85974 21.1185 9.35816C19.9995 10.6722 20.0687 12.8132 21.303 14.0366C22.0067 14.7389 23.068 15.0674 24.0486 14.8748C24.9599 14.7163 25.7559 14.1159 26.1943 13.3229C26.9557 11.9749 26.7365 10.1171 25.5713 9.06364C24.8215 8.38397 23.7256 8.10077 22.7335 8.34998Z" fill="white"/>
<path d="M34.6158 6.19681C36.3578 5.8683 38.2612 6.34407 39.5648 7.54483C41.6874 9.41393 41.9181 12.9142 40.107 15.0665C39.011 16.4259 37.2345 17.1735 35.481 17.0942C33.8083 17.0489 32.1587 16.2333 31.1666 14.8853C30.0476 13.4013 29.8054 11.3623 30.4398 9.62916C31.0743 7.86201 32.7355 6.51399 34.6158 6.19681ZM34.9619 8.34911C34.339 8.5077 33.7622 8.85886 33.3469 9.34596C32.2394 10.6373 32.2856 12.7443 33.4738 13.9791C34.1775 14.7154 35.2734 15.0779 36.2886 14.874C37.1884 14.704 37.9959 14.115 38.4342 13.322C39.1841 11.9627 38.9649 10.1049 37.7882 9.05144C37.0384 8.37176 35.9425 8.09989 34.9619 8.34911Z" fill="white"/>
<path d="M44.9866 6.85418C46.3132 6.03857 48.0782 5.81201 49.5087 6.51434C49.9586 6.70692 50.3277 7.03543 50.6854 7.36393C50.6969 7.05808 50.6854 6.7409 50.6969 6.42372C51.4698 6.43505 52.2427 6.42372 53.0272 6.43505V16.4262C53.0156 17.9328 52.6234 19.5301 51.516 20.6289C50.3047 21.841 48.4474 22.2148 46.7747 21.9656C44.9866 21.705 43.4292 20.425 42.7371 18.8051C43.4292 18.4766 44.156 18.216 44.8712 17.9102C45.275 18.8391 46.0941 19.632 47.1208 19.8133C48.1475 19.9945 49.3357 19.7453 50.0047 18.907C50.72 18.0461 50.72 16.868 50.6854 15.8145C50.1547 16.3243 49.5433 16.7774 48.805 16.9473C47.2015 17.3891 45.4365 16.8454 44.2022 15.7806C42.9563 14.7157 42.218 13.0732 42.2872 11.442C42.3218 9.59553 43.3831 7.81705 44.9866 6.85418ZM47.3745 8.30415C46.6709 8.41743 46.0133 8.80258 45.5634 9.33499C44.479 10.6037 44.479 12.6314 45.5749 13.8775C46.1979 14.6138 47.2015 15.0216 48.1705 14.9196C49.0819 14.829 49.924 14.2626 50.3739 13.481C51.1353 12.1556 51.0084 10.3545 49.9817 9.19905C49.3472 8.48539 48.332 8.13423 47.3745 8.30415Z" fill="white"/>
<path d="M60.2253 7.43208C61.6096 6.16335 63.7438 5.73289 65.5203 6.40124C67.2045 7.02427 68.2774 8.59885 68.8196 10.2187C66.3163 11.2382 63.8245 12.2464 61.3212 13.2659C61.6673 13.9116 62.1979 14.5007 62.9132 14.7386C63.9168 15.0897 65.1165 14.9651 65.9587 14.3081C66.2932 14.0589 66.5585 13.7304 66.8123 13.4132C67.4468 13.8323 68.0813 14.2401 68.7157 14.6593C67.8159 15.9846 66.3047 16.9135 64.6782 17.0608C62.8785 17.276 60.9636 16.5963 59.7985 15.2143C57.8835 13.0394 58.0681 9.3918 60.2253 7.43208ZM61.4596 9.52773C61.0674 10.0828 60.9059 10.7625 60.9174 11.4308C62.5902 10.7511 64.2629 10.0715 65.9356 9.38047C65.6587 8.74611 64.9896 8.36096 64.309 8.25901C63.2131 8.06644 62.071 8.64416 61.4596 9.52773Z" fill="white"/>
</g>
<defs>
<clipPath id="clip0_223_7856">
<rect width="68.7543" height="22.0366" fill="white" transform="translate(0.0654297)"/>
</clipPath>
</defs>
</svg>
