<svg width="81" height="20" viewBox="0 0 81 20" fill="none" xmlns="http://www.w3.org/2000/svg">
<path d="M19.9014 2.67297H19.8989L19.9014 2.67042C19.3513 2.87839 18.7441 2.87839 18.1939 2.67042L18.1914 2.66787C16.2184 7.61944 13.9442 13.2065 11.8998 17.3745L11.9177 17.3694L11.9075 17.3745C12.8416 17.1423 13.7349 17.2137 14.3245 17.3745L14.3194 17.372H14.322L16.0295 13.0611L16.0321 13.0636C18.0403 13.0011 20.05 13.0011 22.0582 13.0636C22.6299 14.5006 23.2016 15.9376 23.7606 17.3771C24.6539 17.1423 25.5447 17.2061 26.2032 17.372H26.2058H26.2032C24.7305 14.6205 21.7749 7.42291 19.8938 2.67042L19.9014 2.67297ZM21.6524 12.0401C19.9142 12.1014 18.176 12.1014 16.4404 12.0401C17.3472 9.7773 18.216 7.49943 19.0464 5.20746C19.8802 7.5 20.7515 9.77871 21.66 12.0427L21.6524 12.0401ZM11.8998 17.3822L11.9075 17.3796L11.8998 17.3822V17.3848V17.3822ZM15.4476 0.717865H15.445C14.6348 0.9209 13.7871 0.9209 12.9769 0.717865C12.2801 2.01446 9.71243 6.21309 8.07637 8.90072C6.41734 6.15438 4.45458 2.98436 3.17585 0.717865C2.16256 0.934815 1.73632 0.947577 0.725586 0.717865C2.73429 3.74496 5.95281 9.50818 7.04777 11.402L6.90229 19.2914C6.90229 19.2914 7.60929 19.174 8.08148 19.174C8.60471 19.174 9.25556 19.2914 9.25556 19.2914L9.10752 11.402C11.1494 7.81852 14.5236 1.97107 15.4476 0.717865ZM48.4598 2.47899C43.2606 2.47899 40.5347 5.77408 40.5347 10.0467C40.5347 14.7226 43.5107 17.5736 48.4521 17.5736C53.7942 17.5736 56.4027 14.3602 56.4027 10.0952C56.4027 5.34018 53.2888 2.47899 48.4623 2.47899H48.4598ZM48.4751 16.7441C45.009 16.7441 42.9747 14.2607 42.9747 10.0723C42.9747 5.33508 45.4837 3.42847 48.3321 3.36976H48.4674C51.6451 3.36976 53.9805 5.53416 53.9805 10.0595C53.9805 14.5772 51.6502 16.7416 48.4751 16.7416V16.7441ZM77.161 16.9993C76.3902 16.9993 76.0048 17.5864 76.0048 18.2194C76.0048 18.9647 76.5995 19.3475 77.3371 19.3475C77.8706 19.3475 78.4499 19.0234 78.4499 18.1454C78.4499 17.4409 77.8986 16.9993 77.161 16.9993ZM79.9737 0.932264C79.9737 0.932264 79.8206 0.911845 79.7185 0.911845C79.1314 0.911845 78.5469 1.25641 78.5469 2.13698C78.1973 6.56276 77.8348 10.9988 77.2376 15.2204L77.235 15.2229H77.2401C77.5521 15.179 77.8702 15.2287 78.1539 15.3658L78.1513 15.3633C78.8302 11.0753 80.4408 4.65105 80.8517 2.83377C80.9104 2.57853 80.9997 2.2748 80.9997 2.0604C80.9997 1.41211 80.5888 1.03436 79.9737 0.932264ZM66.4054 1.59588C61.2292 1.59588 57.273 4.53619 57.273 10.0008C57.273 14.5031 59.9045 18.467 66.4488 18.467C71.9899 18.467 75.6066 15.422 75.6066 10.0799C75.6066 5.04411 72.2324 1.59588 66.4054 1.59588ZM66.4181 17.5762C62.9137 17.5762 59.7208 15.519 59.7208 9.96761C59.7208 4.21204 63.2609 2.50962 66.413 2.50962C70.3003 2.50962 73.164 4.87055 73.164 10.0799C73.164 15.741 69.7005 17.5787 66.4207 17.5787L66.4181 17.5762ZM37.38 2.67808C37.4999 4.96243 37.5586 7.24934 37.5663 9.53881C34.8306 9.60517 32.0936 9.60517 29.3579 9.53881C29.3656 7.24934 29.4243 4.96243 29.5442 2.67808C28.7393 2.87458 27.8989 2.87458 27.094 2.67808C27.2982 7.57647 27.2982 12.4812 27.094 17.3796C27.8903 17.1882 28.7045 17.1806 29.5417 17.3796L29.5366 17.3771L29.5442 17.3796C29.4261 15.1023 29.364 12.8223 29.3579 10.5419C32.094 10.5036 34.8302 10.501 37.5663 10.5393C37.5603 12.8206 37.4981 15.1014 37.38 17.3796L37.3876 17.3771L37.3825 17.3796C38.2197 17.1806 39.0339 17.1882 39.8302 17.3796C39.6261 12.4812 39.6261 7.57647 39.8302 2.67808C39.0253 2.87458 38.1849 2.87458 37.38 2.67808Z" fill="white"/>
</svg>
