<svg width="21" height="21" viewBox="0 0 21 21" fill="none" xmlns="http://www.w3.org/2000/svg">
<path d="M17.9878 16.3639C18.4489 16.8238 18.4489 17.5701 17.9878 18.03C17.5266 18.49 16.7783 18.49 16.3171 18.03L10.5008 12.1863L4.64317 18.0281C4.18199 18.488 3.43374 18.488 2.97251 18.0281C2.51128 17.5681 2.51133 16.8219 2.97251 16.3619L8.83211 10.5221L2.97088 4.63611C2.50971 4.17618 2.50971 3.42995 2.97088 2.96997C3.43206 2.50999 4.18031 2.51004 4.64154 2.96997L10.5008 8.85791L16.3584 3.01611C16.8196 2.55618 17.5679 2.55618 18.0291 3.01611C18.4903 3.47604 18.4903 4.22227 18.0291 4.68225L12.1695 10.5221L17.9878 16.3639Z" fill="#6950E8"/>
</svg>
