<svg width="15" height="17" viewBox="0 0 15 17" fill="none" xmlns="http://www.w3.org/2000/svg">
<g clip-path="url(#clip0_705_13749)">
<path d="M7.52496 16.084C6.05752 16.084 4.62304 15.6358 3.40291 14.7961C2.18278 13.9564 1.23181 12.7628 0.670247 11.3664C0.108684 9.97001 -0.038247 8.43344 0.248035 6.95101C0.534318 5.46859 1.24096 4.1069 2.27859 3.03813C3.31622 1.96936 4.63825 1.24152 6.07749 0.946649C7.51673 0.651777 9.00854 0.803116 10.3643 1.38153C11.72 1.95994 12.8788 2.93945 13.694 4.19619C14.5093 5.45292 14.9444 6.93045 14.9444 8.44191C14.9423 10.4681 14.1599 12.4106 12.769 13.8433C11.378 15.276 9.49207 16.0818 7.52496 16.084ZM7.52496 2.07349C6.30209 2.07349 5.10669 2.44699 4.08992 3.14676C3.07315 3.84654 2.28067 4.84115 1.8127 6.00482C1.34473 7.1685 1.22229 8.44898 1.46086 9.68433C1.69942 10.9197 2.28829 12.0544 3.15298 12.9451C4.01768 13.8357 5.11937 14.4422 6.31873 14.688C7.5181 14.9337 8.76127 14.8076 9.89105 14.3256C11.0208 13.8436 11.9865 13.0273 12.6659 11.98C13.3452 10.9327 13.7079 9.70147 13.7079 8.44191C13.7061 6.75347 13.0541 5.13472 11.8949 3.94081C10.7358 2.7469 9.16421 2.07535 7.52496 2.07349ZM11.0777 12.0509C11.1318 11.9885 11.1735 11.9157 11.2004 11.8367C11.2272 11.7577 11.2386 11.674 11.234 11.5904C11.2295 11.5068 11.2089 11.425 11.1736 11.3496C11.1383 11.2742 11.0889 11.2067 11.0282 11.151C10.0464 10.2871 8.81458 9.7824 7.52496 9.7156C6.23534 9.7824 5.00349 10.2871 4.02172 11.151C3.89923 11.2634 3.82507 11.4212 3.81556 11.5898C3.80606 11.7585 3.86198 11.9241 3.97102 12.0503C4.08007 12.1764 4.23331 12.2528 4.39704 12.2626C4.56076 12.2724 4.72156 12.2148 4.84405 12.1025C5.59989 11.447 6.53907 11.057 7.52496 10.9893C8.51082 11.0571 9.44998 11.4471 10.2059 12.1025C10.3282 12.2145 10.4887 12.272 10.6521 12.2623C10.8155 12.2526 10.9686 12.1766 11.0777 12.0509ZM3.81521 7.16823C3.81521 7.80507 4.36858 7.80507 5.05179 7.80507C5.73501 7.80507 6.28838 7.80507 6.28838 7.16823C6.28838 6.83043 6.15809 6.50646 5.92619 6.2676C5.69429 6.02874 5.37976 5.89455 5.05179 5.89455C4.72383 5.89455 4.4093 6.02874 4.1774 6.2676C3.9455 6.50646 3.81521 6.83043 3.81521 7.16823ZM8.76154 7.16823C8.76154 7.80507 9.31491 7.80507 9.99812 7.80507C10.6813 7.80507 11.2347 7.80507 11.2347 7.16823C11.2347 6.83043 11.1044 6.50646 10.8725 6.2676C10.6406 6.02874 10.3261 5.89455 9.99812 5.89455C9.67016 5.89455 9.35563 6.02874 9.12372 6.2676C8.89182 6.50646 8.76154 6.83043 8.76154 7.16823Z" fill="#FEBF06"/>
</g>
<defs>
<clipPath id="clip0_705_13749">
<rect width="14.839" height="15.2842" fill="white" transform="translate(0.105469 0.799805)"/>
</clipPath>
</defs>
</svg>
