<svg width="16" height="17" viewBox="0 0 16 17" fill="none" xmlns="http://www.w3.org/2000/svg">
<g clip-path="url(#clip0_705_13747)">
<path d="M7.80328 16.084C6.33584 16.084 4.90136 15.6358 3.68123 14.7961C2.4611 13.9564 1.51013 12.7628 0.948567 11.3664C0.387004 9.97001 0.240073 8.43344 0.526356 6.95101C0.812638 5.46859 1.51928 4.1069 2.55691 3.03813C3.59454 1.96936 4.91657 1.24152 6.35581 0.946649C7.79505 0.651777 9.28686 0.803116 10.6426 1.38153C11.9983 1.95994 13.1571 2.93945 13.9724 4.19619C14.7876 5.45292 15.2228 6.93045 15.2228 8.44191C15.2206 10.4681 14.4383 12.4106 13.0473 13.8433C11.6563 15.276 9.77039 16.0818 7.80328 16.084ZM7.80328 2.07349C6.58041 2.07349 5.38501 2.44699 4.36824 3.14676C3.35147 3.84654 2.55899 4.84115 2.09102 6.00482C1.62305 7.1685 1.50061 8.44898 1.73918 9.68433C1.97774 10.9197 2.56661 12.0544 3.4313 12.9451C4.296 13.8357 5.39769 14.4422 6.59705 14.688C7.79642 14.9337 9.03959 14.8076 10.1694 14.3256C11.2991 13.8436 12.2648 13.0273 12.9442 11.98C13.6236 10.9327 13.9862 9.70147 13.9862 8.44191C13.9844 6.75347 13.3324 5.13472 12.1733 3.94081C11.0141 2.7469 9.44253 2.07535 7.80328 2.07349ZM10.8947 10.9893C10.8947 10.8204 10.8296 10.6584 10.7136 10.539C10.5977 10.4195 10.4404 10.3524 10.2764 10.3524H5.33011C5.16613 10.3524 5.00887 10.4195 4.89292 10.539C4.77697 10.6584 4.71182 10.8204 4.71182 10.9893C4.71182 11.1582 4.77697 11.3202 4.89292 11.4396C5.00887 11.559 5.16613 11.6261 5.33011 11.6261H10.2764C10.4404 11.6261 10.5977 11.559 10.7136 11.4396C10.8296 11.3202 10.8947 11.1582 10.8947 10.9893ZM4.09353 7.16823C4.09353 7.80507 4.6469 7.80507 5.33011 7.80507C6.01333 7.80507 6.5667 7.80507 6.5667 7.16823C6.5667 6.83043 6.43641 6.50646 6.20451 6.2676C5.97261 6.02874 5.65808 5.89455 5.33011 5.89455C5.00215 5.89455 4.68762 6.02874 4.45572 6.2676C4.22382 6.50646 4.09353 6.83043 4.09353 7.16823ZM9.03986 7.16823C9.03986 7.80507 9.59323 7.80507 10.2764 7.80507C10.9596 7.80507 11.513 7.80507 11.513 7.16823C11.513 6.83043 11.3827 6.50646 11.1508 6.2676C10.9189 6.02874 10.6044 5.89455 10.2764 5.89455C9.94848 5.89455 9.63395 6.02874 9.40204 6.2676C9.17014 6.50646 9.03986 6.83043 9.03986 7.16823Z" fill="#11B886"/>
</g>
<defs>
<clipPath id="clip0_705_13747">
<rect width="14.839" height="15.2842" fill="white" transform="translate(0.383789 0.799805)"/>
</clipPath>
</defs>
</svg>
