<svg width="16" height="17" viewBox="0 0 16 17" fill="none" xmlns="http://www.w3.org/2000/svg">
<g clip-path="url(#clip0_705_13746)">
<path d="M8.31792 16.084C6.85049 16.084 5.41601 15.6358 4.19588 14.7961C2.97575 13.9564 2.02478 12.7628 1.46322 11.3664C0.901652 9.97001 0.754722 8.43344 1.041 6.95101C1.32729 5.46859 2.03392 4.1069 3.07156 3.03813C4.10919 1.96936 5.43122 1.24152 6.87046 0.946649C8.30969 0.651777 9.80151 0.803116 11.1572 1.38153C12.513 1.95994 13.6717 2.93945 14.487 4.19619C15.3023 5.45292 15.7374 6.93045 15.7374 8.44191C15.7353 10.4681 14.9529 12.4106 13.5619 13.8433C12.171 15.276 10.285 16.0818 8.31792 16.084ZM8.31792 2.07349C7.09506 2.07349 5.89966 2.44699 4.88289 3.14676C3.86611 3.84654 3.07364 4.84115 2.60567 6.00482C2.1377 7.1685 2.01526 8.44898 2.25382 9.68433C2.49239 10.9197 3.08126 12.0544 3.94595 12.9451C4.81065 13.8357 5.91233 14.4422 7.1117 14.688C8.31107 14.9337 9.55424 14.8076 10.684 14.3256C11.8138 13.8436 12.7794 13.0273 13.4588 11.98C14.1382 10.9327 14.5008 9.70147 14.5008 8.44191C14.499 6.75347 13.847 5.13472 12.6879 3.94081C11.5288 2.7469 9.95718 2.07535 8.31792 2.07349ZM11.8212 10.8275C11.9437 10.7152 12.0178 10.5574 12.0273 10.3887C12.0368 10.2201 11.9809 10.0545 11.8719 9.9283C11.7628 9.80213 11.6096 9.72575 11.4458 9.71596C11.2821 9.70616 11.1213 9.76376 10.9988 9.87608C10.243 10.5316 9.30381 10.9215 8.31792 10.9893C7.33263 10.9216 6.39394 10.5321 5.63825 9.87735C5.51592 9.76487 5.35522 9.70704 5.1915 9.71659C5.02777 9.72615 4.87444 9.8023 4.76523 9.9283C4.65602 10.0543 4.59987 10.2198 4.60915 10.3885C4.61843 10.5571 4.69236 10.715 4.81469 10.8275C5.79645 11.6914 7.02831 12.1962 8.31792 12.263C9.60754 12.1962 10.8394 11.6914 11.8212 10.8275ZM4.60818 7.16823C4.60818 7.80507 5.16155 7.80507 5.84476 7.80507C6.52797 7.80507 7.08134 7.80507 7.08134 7.16823C7.08134 6.83043 6.95106 6.50646 6.71916 6.2676C6.48725 6.02874 6.17273 5.89455 5.84476 5.89455C5.5168 5.89455 5.20227 6.02874 4.97037 6.2676C4.73846 6.50646 4.60818 6.83043 4.60818 7.16823ZM9.55451 7.16823C9.55451 7.80507 10.1079 7.80507 10.7911 7.80507C11.4743 7.80507 12.0277 7.80507 12.0277 7.16823C12.0277 6.83043 11.8974 6.50646 11.6655 6.2676C11.4336 6.02874 11.119 5.89455 10.7911 5.89455C10.4631 5.89455 10.1486 6.02874 9.91669 6.2676C9.68479 6.50646 9.55451 6.83043 9.55451 7.16823Z" fill="#6950E8"/>
</g>
<defs>
<clipPath id="clip0_705_13746">
<rect width="14.839" height="15.2842" fill="white" transform="translate(0.898438 0.799805)"/>
</clipPath>
</defs>
</svg>
