<svg width="16" height="16" viewBox="0 0 16 16" fill="none" xmlns="http://www.w3.org/2000/svg">
<g id="More">
<path id="Vector" d="M7.5 12C8.32844 12 9 12.6719 9 13.5C9 14.3281 8.32844 15 7.5 15C6.67156 15 6 14.3281 6 13.5C6 12.6719 6.67156 12 7.5 12ZM7.5 7C8.32844 7 9 7.67188 9 8.5C9 9.32812 8.32844 10 7.5 10C6.67156 10 6 9.32812 6 8.5C6 7.67188 6.67156 7 7.5 7ZM7.5 5C6.67156 5 6 4.32812 6 3.5C6 2.67156 6.67156 2 7.5 2C8.32844 2 9 2.67156 9 3.5C9 4.32812 8.32844 5 7.5 5Z" fill="#6B7280"/>
</g>
</svg>
