<svg width="20" height="20" viewBox="0 0 20 20" fill="none" xmlns="http://www.w3.org/2000/svg">
<path d="M10 14.2C7.6804 14.2 5.8 12.3196 5.8 10C5.8 7.6804 7.6804 5.8 10 5.8C12.3196 5.8 14.2 7.6804 14.2 10C14.2 12.3196 12.3196 14.2 10 14.2Z" fill="#11B886"/>
<path fill-rule="evenodd" clip-rule="evenodd" d="M3 10C3 13.866 6.13401 17 10 17C13.866 17 17 13.866 17 10C17 6.13401 13.866 3 10 3C6.13401 3 3 6.13401 3 10ZM4.05 10C4.05 6.71391 6.71391 4.05 10 4.05C13.2861 4.05 15.95 6.71391 15.95 10C15.95 13.2861 13.2861 15.95 10 15.95C6.71391 15.95 4.05 13.2861 4.05 10Z" fill="#11B886"/>
</svg>
