<svg width="40" height="40" viewBox="0 0 40 40" fill="none" xmlns="http://www.w3.org/2000/svg">
<rect width="40" height="40" rx="8" fill="#11B886" fill-opacity="0.1"/>
<path d="M14.7547 19.25C14.75 19.3766 14.75 19.4984 14.75 19.625V20.375C14.75 20.5016 14.75 20.6234 14.7547 20.75H14C13.1703 20.75 12.5 21.4203 12.5 22.25C12.5 23.0797 13.1703 23.75 14 23.75H15.3266C16.7141 27.6828 20.4688 30.5 24.875 30.5H26C26.8297 30.5 27.5 29.8297 27.5 29C27.5 28.1703 26.8297 27.5 26 27.5H24.875C22.1609 27.5 19.8031 25.9812 18.5984 23.75H24.5C25.3297 23.75 26 23.0797 26 22.25C26 21.4203 25.3297 20.75 24.5 20.75H17.7594C17.7547 20.6281 17.75 20.5016 17.75 20.375V19.625C17.75 19.4984 17.7547 19.3719 17.7594 19.25H24.5C25.3297 19.25 26 18.5797 26 17.75C26 16.9203 25.3297 16.25 24.5 16.25H18.5984C19.8031 14.0188 22.1609 12.5 24.875 12.5H26C26.8297 12.5 27.5 11.8297 27.5 11C27.5 10.1703 26.8297 9.5 26 9.5H24.875C20.4688 9.5 16.7141 12.3172 15.3266 16.25H14C13.1703 16.25 12.5 16.9203 12.5 17.75C12.5 18.5797 13.1703 19.25 14 19.25H14.7547Z" fill="#11B886"/>
</svg>
