<svg width="40" height="40" viewBox="0 0 40 40" fill="none" xmlns="http://www.w3.org/2000/svg">
<rect width="40" height="40" rx="8" fill="#FEBF06" fill-opacity="0.1"/>
<path d="M17.7475 15.5187C17.7475 13.8547 19.0968 12.5 20.7648 12.5C21.0881 12.5 21.4114 12.5516 21.7206 12.6547L25.525 13.925C26.3122 14.1875 27.1602 13.7609 27.4226 12.9781C27.6849 12.1953 27.2586 11.3422 26.4761 11.0797L22.667 9.80937C22.0533 9.60312 21.4114 9.5 20.7648 9.5C17.443 9.5 14.7489 12.1953 14.7489 15.5187V18.5H13.9993C13.17 18.5 12.5 19.1703 12.5 20C12.5 20.8297 13.17 21.5 13.9993 21.5H14.7489V23.5859C14.7489 24.4016 14.5287 25.2031 14.107 25.9016L12.7155 28.2266C12.4391 28.6906 12.4297 29.2672 12.6968 29.7359C12.9638 30.2047 13.4605 30.5 13.9993 30.5H25.9936C26.8228 30.5 27.4928 29.8297 27.4928 29C27.4928 28.1703 26.8228 27.5 25.9936 27.5H16.6465L16.6793 27.4484C17.3774 26.2812 17.7475 24.9453 17.7475 23.5859V21.5H22.995C23.8243 21.5 24.4943 20.8297 24.4943 20C24.4943 19.1703 23.8243 18.5 22.995 18.5H17.7475V15.5187Z" fill="#FEBF06"/>
</svg>
