<svg width="40" height="40" viewBox="0 0 40 40" fill="none" xmlns="http://www.w3.org/2000/svg">
<rect width="40" height="40" rx="8" fill="#6950E8" fill-opacity="0.1"/>
<path d="M20.5693 9.5C21.3763 9.5 22.0282 10.0865 22.0282 10.8125V12.2768C22.1011 12.285 22.1695 12.2932 22.2424 12.3055C22.7257 12.3711 24.1617 12.5803 24.7544 12.7156C25.5339 12.892 26.0081 13.6057 25.812 14.3111C25.616 15.0166 24.8228 15.4391 24.0386 15.2627C23.6147 15.1643 22.3245 14.9756 21.8094 14.9059C20.346 14.709 19.0923 14.8074 18.2306 15.1068C17.3964 15.3939 17.0499 15.8 16.9587 16.2553C16.8721 16.6941 16.9359 16.9443 17.018 17.1002C17.1046 17.2643 17.2733 17.4488 17.6061 17.6498C18.3446 18.0928 19.4798 18.384 20.9477 18.7449L21.0754 18.7777C22.3701 19.0936 23.9566 19.4832 25.1328 20.1846C25.7756 20.5701 26.3773 21.091 26.7512 21.8129C27.1296 22.543 27.2116 23.3633 27.0384 24.2369C26.7238 25.7955 25.5294 26.8373 24.0478 27.3828C23.4232 27.6125 22.7439 27.7602 22.0236 27.834V29.1875C22.0236 29.9135 21.3717 30.5 20.5648 30.5C19.7579 30.5 19.1059 29.9135 19.1059 29.1875V27.7561C19.0877 27.752 19.0649 27.752 19.0467 27.7479H19.0376C17.9252 27.592 16.0971 27.1613 14.8662 26.6691C14.1277 26.3738 13.7994 25.5986 14.1277 24.9383C14.4559 24.2779 15.3175 23.9785 16.0515 24.2738C17.0043 24.6553 18.5726 25.0285 19.4798 25.1598C20.934 25.3525 22.133 25.2418 22.9445 24.9424C23.715 24.6594 24.066 24.2492 24.1663 23.757C24.2529 23.3182 24.1891 23.068 24.107 22.9121C24.0204 22.748 23.8517 22.5635 23.5189 22.3625C22.7804 21.9195 21.6452 21.6283 20.1773 21.2674L20.0496 21.2346C18.7549 20.9187 17.1684 20.5291 15.9922 19.8277C15.3494 19.4422 14.7477 18.9213 14.3738 18.1994C13.9954 17.4693 13.9134 16.649 14.0866 15.7754C14.4149 14.1799 15.6913 13.1627 17.1958 12.6459C17.7884 12.4408 18.4358 12.3096 19.1105 12.2357V10.8125C19.1105 10.0865 19.7624 9.5 20.5693 9.5Z" fill="#6950E8"/>
</svg>
