<svg width="20" height="19" viewBox="0 0 20 19" fill="none" xmlns="http://www.w3.org/2000/svg">
<path d="M10.2464 2.25781C8.75599 2.25781 7.29909 2.69784 6.0599 3.52226C4.82071 4.34668 3.85488 5.51846 3.28454 6.88941C2.7142 8.26037 2.56498 9.76893 2.85573 11.2243C3.14649 12.6797 3.86417 14.0166 4.91801 15.0659C5.97186 16.1152 7.31454 16.8297 8.77627 17.1192C10.238 17.4087 11.7531 17.2602 13.13 16.6923C14.5069 16.1244 15.6838 15.1628 16.5118 13.9289C17.3398 12.6951 17.7818 11.2445 17.7818 9.76061C17.7797 7.77139 16.9851 5.86424 15.5724 4.45765C14.1597 3.05106 12.2442 2.25991 10.2464 2.25781ZM10.2464 16.1091C8.98528 16.1091 7.75252 15.7368 6.70397 15.0392C5.65542 14.3416 4.83818 13.3501 4.35559 12.1901C3.87299 11.03 3.74673 9.75357 3.99275 8.52207C4.23877 7.29058 4.84604 6.15938 5.73776 5.27153C6.62947 4.38367 7.76559 3.77903 9.00243 3.53407C10.2393 3.28911 11.5213 3.41484 12.6864 3.89534C13.8515 4.37585 14.8473 5.18955 15.5479 6.23356C16.2485 7.27757 16.6225 8.50499 16.6225 9.76061C16.6206 11.4438 15.9482 13.0574 14.7528 14.2476C13.5575 15.4377 11.9368 16.1072 10.2464 16.1091ZM9.66671 10.3377V6.29778C9.66671 6.14471 9.72778 5.99792 9.83648 5.88968C9.94519 5.78145 10.0926 5.72064 10.2464 5.72064C10.4001 5.72064 10.5475 5.78145 10.6562 5.88968C10.7649 5.99792 10.826 6.14471 10.826 6.29778V10.3377C10.826 10.4908 10.7649 10.6376 10.6562 10.7458C10.5475 10.8541 10.4001 10.9149 10.2464 10.9149C10.0926 10.9149 9.94519 10.8541 9.83648 10.7458C9.72778 10.6376 9.66671 10.4908 9.66671 10.3377ZM11.1158 12.9349C11.1158 13.1061 11.0648 13.2735 10.9693 13.4158C10.8738 13.5582 10.738 13.6692 10.5791 13.7347C10.4202 13.8002 10.2454 13.8173 10.0767 13.7839C9.90807 13.7505 9.75314 13.6681 9.63154 13.547C9.50995 13.4259 9.42714 13.2717 9.39359 13.1038C9.36004 12.9358 9.37726 12.7618 9.44307 12.6036C9.50888 12.4454 9.62032 12.3102 9.7633 12.2151C9.90629 12.1199 10.0744 12.0692 10.2464 12.0692C10.477 12.0692 10.6981 12.1604 10.8612 12.3227C11.0242 12.4851 11.1158 12.7053 11.1158 12.9349Z" fill="#EF4770"/>
</svg>
