<svg width="32" height="29" viewBox="0 0 32 29" fill="none" xmlns="http://www.w3.org/2000/svg">
<g id="Regular/WarningCircle">
<path id="Vector" d="M15.9789 3.23389C13.4983 3.23389 11.0733 3.90593 9.01074 5.16505C6.94816 6.42416 5.34057 8.21378 4.39126 10.3076C3.44196 12.4014 3.19358 14.7054 3.67753 16.9282C4.16148 19.151 5.35603 21.1928 7.11011 22.7953C8.8642 24.3979 11.099 25.4892 13.532 25.9313C15.965 26.3735 18.4869 26.1466 20.7787 25.2793C23.0705 24.412 25.0294 22.9433 26.4076 21.0589C27.7857 19.1745 28.5213 16.959 28.5213 14.6927C28.5178 11.6546 27.1953 8.74189 24.8439 6.59364C22.4925 4.44539 19.3043 3.23709 15.9789 3.23389ZM15.9789 24.3886C13.8799 24.3886 11.828 23.82 10.0828 22.7546C8.33751 21.6892 6.97724 20.1749 6.17398 18.4032C5.37072 16.6315 5.16055 14.6819 5.57005 12.8011C5.97955 10.9203 6.99032 9.19265 8.47455 7.83665C9.95877 6.48065 11.8498 5.55721 13.9085 5.18309C15.9672 4.80897 18.101 5.00098 20.0403 5.73484C21.9795 6.4687 23.637 7.71145 24.8031 9.30594C25.9693 10.9004 26.5917 12.775 26.5917 14.6927C26.5885 17.2633 25.4694 19.7278 23.4798 21.5455C21.4902 23.3632 18.7926 24.3857 15.9789 24.3886ZM15.0141 15.5742V9.40402C15.0141 9.17024 15.1158 8.94604 15.2967 8.78074C15.4776 8.61544 15.723 8.52257 15.9789 8.52257C16.2348 8.52257 16.4802 8.61544 16.6611 8.78074C16.8421 8.94604 16.9437 9.17024 16.9437 9.40402V15.5742C16.9437 15.8079 16.8421 16.0321 16.6611 16.1974C16.4802 16.3627 16.2348 16.4556 15.9789 16.4556C15.723 16.4556 15.4776 16.3627 15.2967 16.1974C15.1158 16.0321 15.0141 15.8079 15.0141 15.5742ZM17.4261 19.5407C17.4261 19.8022 17.3412 20.0578 17.1822 20.2752C17.0232 20.4927 16.7972 20.6621 16.5327 20.7622C16.2683 20.8623 15.9773 20.8884 15.6966 20.8374C15.4159 20.7864 15.158 20.6605 14.9556 20.4756C14.7532 20.2907 14.6154 20.0551 14.5595 19.7986C14.5037 19.5421 14.5324 19.2763 14.6419 19.0347C14.7514 18.7931 14.9369 18.5866 15.1749 18.4413C15.4129 18.296 15.6927 18.2185 15.9789 18.2185C16.3627 18.2185 16.7308 18.3578 17.0023 18.6057C17.2737 18.8537 17.4261 19.19 17.4261 19.5407Z" fill="#EF4770"/>
</g>
</svg>
